<svg xmlns="http://www.w3.org/2000/svg" viewBox="0 0 18 18"><g stroke-linecap="round" stroke-width="1.5" fill="none" stroke="currentColor" stroke-linejoin="round" class="nc-icon-wrapper"><path d="M14.75 9.5C14.75 6.324 12.176 3.75 9 3.75C5.824 3.75 3.25 6.324 3.25 9.5V14.25C3.25 15.355 4.145 16.25 5.25 16.25H6.25V11C6.25 9.4812 7.4812 8.25 9 8.25C10.5188 8.25 11.75 9.4812 11.75 11V16.25H12.75C13.855 16.25 14.75 15.355 14.75 14.25V9.5Z" fill="currentColor" fill-opacity="0.3" data-color="color-2" data-stroke="none" stroke="none"></path> <path d="M4.65081 5.73851L4.0829 1.82081C4.0392 1.51931 4.273 1.24911 4.5777 1.24911H6.5838C6.825 1.24911 7.0318 1.42132 7.0755 1.65842L7.49781 3.94831"></path> <path d="M10.5022 3.94819L10.9245 1.65829C10.9682 1.42109 11.175 1.24899 11.4162 1.24899H13.4223C13.727 1.24899 13.9608 1.51919 13.9171 1.82069L13.3491 5.73849"></path> <path d="M9 3.75C12.176 3.75 14.75 6.324 14.75 9.5V14.25C14.75 15.355 13.855 16.25 12.75 16.25H5.25C4.145 16.25 3.25 15.355 3.25 14.25V9.5C3.25 6.324 5.824 3.75 9 3.75Z"></path> <path d="M6.25 11.75H11.75"></path> <path d="M6.25 16.25V11C6.25 9.4812 7.4812 8.25 9 8.25C10.5188 8.25 11.75 9.4812 11.75 11V16.25"></path></g></svg>