<svg xmlns="http://www.w3.org/2000/svg" viewBox="0 0 18 18"><g stroke-linecap="round" stroke-width="1.5" fill="none" stroke="currentColor" stroke-linejoin="round" class="nc-icon-wrapper"><path fill-rule="evenodd" clip-rule="evenodd" d="M16.25 9C16.25 13.0041 13.0041 16.25 9 16.25C4.99594 16.25 1.75 13.0041 1.75 9C1.75 4.99594 4.99594 1.75 9 1.75C13.0041 1.75 16.25 4.99594 16.25 9ZM11 8.25C11 9.35457 10.1046 10.25 9 10.25C7.89543 10.25 7 9.35457 7 8.25C7 7.14543 7.89543 6.25 9 6.25C10.1046 6.25 11 7.14543 11 8.25Z" fill="currentColor" fill-opacity="0.3" data-color="color-2" data-stroke="none" stroke="none"></path> <path d="M9 16.25C13.0041 16.25 16.25 13.0041 16.25 9C16.25 4.99594 13.0041 1.75 9 1.75C4.99594 1.75 1.75 4.99594 1.75 9C1.75 13.0041 4.99594 16.25 9 16.25Z"></path> <path d="M9 10.25C10.1046 10.25 11 9.35457 11 8.25C11 7.14543 10.1046 6.25 9 6.25C7.89543 6.25 7 7.14543 7 8.25C7 9.35457 7.89543 10.25 9 10.25Z"></path> <path d="M9 10.25V12.5"></path></g></svg>