<svg xmlns="http://www.w3.org/2000/svg" viewBox="0 0 18 18"><g stroke-linecap="round" stroke-width="1.5" fill="none" stroke="currentColor" stroke-linejoin="round" class="nc-icon-wrapper"><path d="M3.06602 7.25H14.934C15.595 7.25 16.075 7.88 15.898 8.518L13.954 15.518C13.834 15.951 13.44 16.25 12.99 16.25H5.01002C4.56102 16.25 4.16702 15.95 4.04602 15.518L2.10202 8.518C1.92502 7.881 2.40402 7.25 3.06602 7.25Z" fill="currentColor" fill-opacity="0.3" data-color="color-2" data-stroke="none" stroke="none"></path> <path d="M12.25 1.25H5.75"></path> <path d="M14.25 4.25H3.75"></path> <path d="M3.06602 7.25H14.934C15.595 7.25 16.075 7.88 15.898 8.518L13.954 15.518C13.834 15.951 13.44 16.25 12.99 16.25H5.01002C4.56102 16.25 4.16702 15.95 4.04602 15.518L2.10202 8.518C1.92502 7.881 2.40402 7.25 3.06602 7.25Z"></path></g></svg>