<svg xmlns="http://www.w3.org/2000/svg" viewBox="0 0 18 18"><g stroke-linecap="round" stroke-width="1.5" fill="none" stroke="currentColor" stroke-linejoin="round" class="nc-icon-wrapper"><path fill-rule="evenodd" clip-rule="evenodd" d="M1.75 5.64296L8.565 9.54C8.84 9.673 9.16 9.673 9.434 9.54L16.25 5.64239V5.25C16.25 4.14543 15.3546 3.25 14.25 3.25H3.75C2.64543 3.25 1.75 4.14543 1.75 5.25V5.64296Z" fill="currentColor" fill-opacity="0.3" data-color="color-2" data-stroke="none" stroke="none"></path> <path d="M1.75 5.75L8.517 9.483C8.818 9.649 9.182 9.649 9.483 9.483L16.25 5.75"></path> <path d="M3.75 14.75L14.25 14.75C15.3546 14.75 16.25 13.8546 16.25 12.75V5.25C16.25 4.14543 15.3546 3.25 14.25 3.25L3.75 3.25C2.64543 3.25 1.75 4.14543 1.75 5.25L1.75 12.75C1.75 13.8546 2.64543 14.75 3.75 14.75Z"></path></g></svg>