<svg xmlns="http://www.w3.org/2000/svg" viewBox="0 0 18 18"><g stroke-linecap="round" stroke-width="1.5" fill="none" stroke="currentColor" stroke-linejoin="round" class="nc-icon-wrapper"><path d="m9,1.75c-3.452,0-6.25,2.7979-6.25,6.25v8.25c1.75,0,1.781-1.5,3.25-1.5s1.562,1.5,3,1.5,1.531-1.5,3-1.5,1.5,1.5,3.25,1.5v-8.25c0-3.4521-2.798-6.25-6.25-6.25Z" fill="currentColor" opacity=".3" stroke-width="0" data-color="color-2"></path><ellipse cx="6" cy="8.5" rx="1" ry="1.5" stroke-width="0" fill="currentColor"></ellipse><ellipse cx="12" cy="8.5" rx="1" ry="1.5" stroke-width="0" fill="currentColor"></ellipse><path d="m9,1.75c-3.452,0-6.25,2.7979-6.25,6.25v8.25c1.75,0,1.781-1.5,3.25-1.5s1.562,1.5,3,1.5,1.531-1.5,3-1.5,1.5,1.5,3.25,1.5v-8.25c0-3.4521-2.798-6.25-6.25-6.25Z"></path><circle cx="9" cy="11.25" r="1.25" stroke-width="0" fill="currentColor"></circle></g></svg>