<svg xmlns="http://www.w3.org/2000/svg" viewBox="0 0 18 18"><g stroke-linecap="round" stroke-width="1.5" fill="none" stroke="currentColor" stroke-linejoin="round" class="nc-icon-wrapper"><path d="M6.25 2.75H3.75C3.19772 2.75 2.75 3.19772 2.75 3.75V6.25C2.75 6.80228 3.19772 7.25 3.75 7.25H6.25C6.80228 7.25 7.25 6.80228 7.25 6.25V3.75C7.25 3.19772 6.80228 2.75 6.25 2.75Z" fill="currentColor" fill-opacity="0.3" data-color="color-2" data-stroke="none" stroke="none"></path> <path d="M13 15.5C14.3807 15.5 15.5 14.3807 15.5 13C15.5 11.6193 14.3807 10.5 13 10.5C11.6193 10.5 10.5 11.6193 10.5 13C10.5 14.3807 11.6193 15.5 13 15.5Z" fill="currentColor" fill-opacity="0.3" data-color="color-2" data-stroke="none" stroke="none"></path> <path d="M6.25 2.75H3.75C3.19772 2.75 2.75 3.19772 2.75 3.75V6.25C2.75 6.80228 3.19772 7.25 3.75 7.25H6.25C6.80228 7.25 7.25 6.80228 7.25 6.25V3.75C7.25 3.19772 6.80228 2.75 6.25 2.75Z"></path> <path d="M13 15.5C14.3807 15.5 15.5 14.3807 15.5 13C15.5 11.6193 14.3807 10.5 13 10.5C11.6193 10.5 10.5 11.6193 10.5 13C10.5 14.3807 11.6193 15.5 13 15.5Z"></path> <path d="M7.25 10.75L2.75 15.25"></path> <path d="M2.75 10.75L7.25 15.25"></path> <path d="M12.567 2.57601L10.301 6.50001C10.109 6.83301 10.349 7.25001 10.734 7.25001H15.265C15.65 7.25001 15.89 6.83301 15.698 6.50001L13.432 2.57601C13.24 2.24301 12.758 2.24301 12.566 2.57601H12.567Z"></path></g></svg>