<svg xmlns="http://www.w3.org/2000/svg" viewBox="0 0 18 18"><g stroke-linecap="round" stroke-width="1.5" fill="none" stroke="currentColor" stroke-linejoin="round" class="nc-icon-wrapper"><path d="M12.25 1.75H5.75C4.64543 1.75 3.75 2.64543 3.75 3.75V14.25C3.75 15.3546 4.64543 16.25 5.75 16.25H12.25C13.3546 16.25 14.25 15.3546 14.25 14.25V3.75C14.25 2.64543 13.3546 1.75 12.25 1.75Z" fill="currentColor" fill-opacity="0.3" data-color="color-2" data-stroke="none" stroke="none"></path> <path d="M12.25 1.75H5.75C4.64543 1.75 3.75 2.64543 3.75 3.75V14.25C3.75 15.3546 4.64543 16.25 5.75 16.25H12.25C13.3546 16.25 14.25 15.3546 14.25 14.25V3.75C14.25 2.64543 13.3546 1.75 12.25 1.75Z"></path> <path d="M7.75 1.75V2.75H10.25V1.75"></path> <path d="M9 14C9.55228 14 10 13.5523 10 13C10 12.4477 9.55228 12 9 12C8.44772 12 8 12.4477 8 13C8 13.5523 8.44772 14 9 14Z" fill="currentColor" data-stroke="none" stroke="none"></path></g></svg>