<svg xmlns="http://www.w3.org/2000/svg" viewBox="0 0 18 18"><g stroke-linecap="round" stroke-width="1.5" fill="none" stroke="currentColor" stroke-linejoin="round" class="nc-icon-wrapper"><path d="M9.75 1.75H8.25C6.04086 1.75 4.25 3.54086 4.25 5.75V12.25C4.25 14.4591 6.04086 16.25 8.25 16.25H9.75C11.9591 16.25 13.75 14.4591 13.75 12.25V5.75C13.75 3.54086 11.9591 1.75 9.75 1.75Z" fill="currentColor" fill-opacity="0.3" data-color="color-2" data-stroke="none" stroke="none"></path> <path d="M9.75 1.75H8.25C6.04086 1.75 4.25 3.54086 4.25 5.75V12.25C4.25 14.4591 6.04086 16.25 8.25 16.25H9.75C11.9591 16.25 13.75 14.4591 13.75 12.25V5.75C13.75 3.54086 11.9591 1.75 9.75 1.75Z"></path> <path d="M9 5.25V7.75"></path></g></svg>