<svg viewBox="0 0 24 24" fill="none" xmlns="http://www.w3.org/2000/svg">
<path fill-rule="evenodd" clip-rule="evenodd" d="M5.93139 20.2694C2.94025 18.0631 1 14.5142 1 10.5122C1 8.64887 1.42061 6.88377 2.17208 5.30667C2.91687 4.97251 3.56349 4.52396 4.15843 4.11125C5.01266 3.51867 5.76035 3 6.5391 3C7.41446 3 8.00889 3.71948 8.78828 4.66283C9.33776 5.3279 9.97917 6.10424 10.8758 6.81817C12.5513 8.15172 13.7481 8.2921 14.9871 7.9552C15.3643 7.84777 15.7084 7.70746 15.9943 7.59089C16.082 7.55514 16.1642 7.52162 16.2402 7.49197C16.4233 7.40774 16.6486 7.56215 16.6204 7.77271C16.5218 8.46055 16.4374 9.6818 17.1273 10.0468C18.8098 10.9225 20.6989 8.72038 21.9444 7.26844C22.1164 7.06793 22.2762 6.88172 22.4214 6.71991C22.6044 6.50935 23.0268 6.5655 22.9987 6.91643C22.9142 8.20787 22.703 10.6083 21.7596 12.6858C20.4361 15.6196 18.2255 17.4445 14.9871 17.8656C12.495 18.1885 9.80567 17.2058 8.48215 16.7005C7.8063 16.4338 7.32758 16.4197 6.9615 16.8128C6.25906 17.5623 5.98807 18.9247 5.93139 20.2694ZM14.9167 12.4191C14.9167 12.6998 15.142 12.9244 15.4236 12.9244C15.7052 12.9244 15.9305 12.6998 15.9305 12.4191C15.9305 12.1383 15.7052 11.9137 15.4236 11.9137C15.142 11.9137 14.9167 12.1383 14.9167 12.4191Z" fill="currentColor"/>
</svg>
