<svg width="24" height="24" viewBox="0 0 24 24" fill="none" xmlns="http://www.w3.org/2000/svg">
<path d="M21.2927 4.10622L17.1743 2.12329C16.6976 1.89377 16.1279 1.99059 15.7538 2.3647L2.27171 14.6572C1.90907 14.9878 1.90949 15.5588 2.27261 15.8889L3.37387 16.89C3.67073 17.1599 4.11781 17.1798 4.43743 16.9373L20.673 4.62065C21.2177 4.20744 22 4.59592 22 5.27961V5.2318C22 4.75189 21.7251 4.31441 21.2927 4.10622Z" fill="currentColor"/>
<path d="M21.2927 19.7782L17.1743 21.7611C16.6976 21.9907 16.1279 21.8938 15.7538 21.5197L2.27171 9.22725C1.90907 8.89661 1.90949 8.32568 2.27261 7.99558L3.37387 6.99442C3.67073 6.72455 4.11781 6.70468 4.43743 6.94715L20.673 19.2638C21.2177 19.677 22 19.2885 22 18.6048V18.6527C22 19.1325 21.7251 19.57 21.2927 19.7782Z" fill="currentColor"/>
<path d="M17.1743 21.7611C16.6976 21.9907 16.1279 21.8938 15.7538 21.5197C16.2148 21.9807 17.003 21.6542 17.003 21.0023V2.88215C17.003 2.2302 16.2148 1.90371 15.7538 2.3647C16.1279 1.99059 16.6976 1.89377 17.1743 2.12329L21.2922 4.10312C21.7248 4.31119 22 4.74883 22 5.22894V18.6556C22 19.1357 21.7248 19.5733 21.2922 19.7814L17.1743 21.7611Z" fill="currentColor"/>
</svg>
