<svg viewBox="0 0 24 24" fill="none" xmlns="http://www.w3.org/2000/svg">
<path d="M22.9423 9.07646C23.0772 8.42136 22.976 7.73253 22.634 7.15447C22.2487 6.50418 21.6225 6.06586 20.8854 5.91654C20.7169 5.88281 20.5386 5.86352 20.37 5.86352H20.3604C19.0983 5.86352 18.0386 6.76912 17.7881 8.0071C17.6388 8.73447 17.3497 9.43774 16.9451 10.0881C16.9221 10.124 16.8898 10.1532 16.8518 10.1726C16.8137 10.1921 16.7712 10.201 16.7285 10.1985C16.6859 10.1961 16.6446 10.1823 16.6091 10.1587C16.5735 10.135 16.5448 10.1023 16.526 10.064L13.9056 4.57256C13.5732 3.87411 12.9759 3.32496 12.2341 3.10819C10.9624 2.73247 9.65211 3.36832 9.11264 4.5051L6.40548 10.1988C6.33321 10.3482 6.12128 10.3434 6.05863 10.194V10.1892C5.86347 9.70155 5.52629 9.28375 5.09083 8.99001C4.65536 8.69626 4.14169 8.54011 3.61642 8.5418C3.26958 8.5418 2.92759 8.60926 2.60004 8.7441C1.25125 9.30768 0.649127 10.8973 1.20789 12.2461C1.71849 13.4648 2.55668 14.616 3.64534 15.6084C3.72238 15.6806 3.74649 15.7914 3.70313 15.8877L2.82644 17.7278C2.20984 19.0285 2.706 20.6132 3.98733 21.2636C4.36305 21.4514 4.76287 21.5478 5.17713 21.5478C6.1887 21.5478 7.12319 20.9601 7.55674 20.0448L8.31299 18.46C8.3612 18.3541 8.4816 18.3011 8.59242 18.3348C9.51246 18.5853 10.4373 18.7202 11.3477 18.7202C12.3738 18.7202 13.3853 18.566 14.3632 18.2818C14.4177 18.2658 14.4762 18.2696 14.5282 18.2925C14.5802 18.3154 14.6224 18.356 14.6474 18.407L15.394 19.9774C15.8372 20.9119 16.7621 21.5478 17.7929 21.5526C18.212 21.5526 18.6166 21.461 18.9972 21.2684C20.2833 20.6181 20.7747 19.0284 20.1581 17.723L19.2188 15.748C19.1754 15.6517 19.1947 15.5409 19.2717 15.4687C21.0926 13.7731 22.4365 11.5524 22.9423 9.07646ZM6.69453 19.6257C6.55796 19.9125 6.34296 20.1548 6.07442 20.3244C5.80588 20.4941 5.49477 20.5842 5.17713 20.5844C4.92662 20.5844 4.67135 20.5266 4.43532 20.4109C3.60679 20.0015 3.29364 18.9706 3.69351 18.1373L4.42088 16.6103C4.48349 16.4754 4.65691 16.4273 4.77249 16.514C4.92667 16.6247 5.08561 16.7307 5.2494 16.8367C5.88366 17.242 6.55263 17.5902 7.24844 17.8772C7.37851 17.9302 7.4363 18.0747 7.37851 18.1999L6.69453 19.6257ZM11.3477 17.7519C7.48932 17.7519 3.41412 15.1363 2.06533 11.7981C1.89874 11.3861 1.90258 10.9248 2.07601 10.5156C2.24944 10.1064 2.57827 9.7828 2.99019 9.61598C3.1973 9.53408 3.40927 9.49072 3.61642 9.49072C4.28115 9.49072 4.90737 9.88573 5.17232 10.5409C6.01528 12.6314 8.84288 14.3993 11.3477 14.3993C11.7331 14.3993 12.1185 14.3608 12.499 14.2933C12.5506 14.2839 12.6038 14.2915 12.6508 14.315C12.6977 14.3384 12.7357 14.3765 12.7591 14.4234L14.0212 17.0824C14.0838 17.2173 14.0115 17.3762 13.8719 17.4148C13.0481 17.6315 12.2052 17.7519 11.3477 17.7519ZM10.7986 13.2336L11.3815 12.01C11.4296 11.9137 11.5693 11.9137 11.6175 12.01L12.1859 13.2047C12.2244 13.2817 12.1715 13.3781 12.0896 13.3925C11.8439 13.4262 11.5982 13.4455 11.3574 13.4455C11.2081 13.4455 11.0587 13.4359 10.9094 13.4215C10.8082 13.407 10.7601 13.3106 10.7986 13.2336ZM18.554 20.4061C18.3544 20.5046 18.1373 20.5624 17.9151 20.5762C17.693 20.59 17.4703 20.5594 17.2601 20.4864C17.0499 20.4133 16.8563 20.2992 16.6905 20.1506C16.5248 20.002 16.3903 19.822 16.2948 19.6209L11.7235 10.011C11.6319 9.81832 11.3574 9.81832 11.2707 10.011L9.85445 12.9927C9.82931 13.046 9.7855 13.0881 9.73135 13.1112C9.67719 13.1343 9.61645 13.1367 9.56063 13.118C8.59723 12.7856 7.68199 12.222 7.00279 11.5428C6.96823 11.508 6.94545 11.4633 6.93767 11.4149C6.92989 11.3665 6.9375 11.3169 6.95943 11.273L10.0231 4.82788C10.129 4.60144 10.2928 4.39914 10.4999 4.25945C11.4633 3.62841 12.5905 4.02342 13.0096 4.90493L19.2958 18.1277C19.6908 18.9658 19.3826 19.9967 18.554 20.4061ZM17.2293 11.5621C17.2101 11.5218 17.2026 11.477 17.2077 11.4327C17.2128 11.3883 17.2303 11.3464 17.2582 11.3116C17.976 10.3915 18.501 9.31734 18.7274 8.17571C18.8864 7.38087 19.5849 6.82692 20.37 6.82692C20.5049 6.82692 20.6398 6.8414 20.7795 6.87509C21.6706 7.09668 22.1861 8.02153 21.9982 8.92233C21.555 11.0322 20.4567 12.9446 18.9586 14.4427C18.8382 14.5631 18.6407 14.5294 18.5685 14.38L17.2293 11.5621Z" fill="currentColor"/>
</svg>
