<svg xmlns="http://www.w3.org/2000/svg" viewBox="0 0 24 24"><path fill="currentColor" d="M5.63 1.755A11.694 11.694 0 0 1 11.953 0C19.828 0 24 5.803 24 10.29a5.833 5.833 0 0 1-5.747 5.822c-3.525-.001-4.289-1.084-4.289-1.501 0-.178.056-.29.225-.44l.047-.057.019-.075c.492-.539.745-1.228.745-1.95C15 8.4 11.147 5.4 6.375 5.4a10.343 10.343 0 0 0-5.04 1.26c1.266-2.695 3.877-4.574 4.28-4.866.038-.025.015-.039.015-.039zm.73 14.91a9.237 9.237 0 0 0 .77 4.087c.637 1.237 1.532 2.39 2.648 3.248-2.789-.54-5.226-2.058-7.003-4.186A12.156 12.156 0 0 1 0 12.09c0-2.4 2.925-4.425 6.375-4.425a7.799 7.799 0 0 1 4.772 1.533l-.169.056c-2.414.825-4.617 4.252-4.617 7.411zm15.662 2.085-.033.005a10.584 10.584 0 0 1-1.978 2.32c-1.444 1.313-3.192 2.133-5.1 2.34a5.541 5.541 0 0 1-2.522-.535c-1.2-.483-2.208-1.407-2.887-2.485a6.313 6.313 0 0 1-.891-3.73c-.028-.943.253-1.89.703-2.73a8.364 8.364 0 0 0 7.922 5.128 9.416 9.416 0 0 0 4.228-.96l.09-.042c.182-.108.36-.183.543 0 .21.23.084.431-.056.656-.01.01-.014.024-.02.033z"/></svg>
