<svg xmlns="http://www.w3.org/2000/svg" viewBox="0 0 192.01 192.01"><path fill="currentColor" d="M144.01 123.89v3.62c0 9.1-7.4 16.5-16.5 16.5H89.04l91.47-73.18c7.16-5.73 7.01-15.81 1.14-21.68l-45-44.99c-2.67-2.67-6.29-4.15-10.2-4.16H18.51C8.31 0 .01 8.3.01 18.49v1.63l47.99 48V64.5c0-9.09 7.42-16.5 16.51-16.51h38.48l-91.48 73.2c-7.19 5.74-6.98 15.84-1.14 21.68l45.58 45.55c2.64 2.35 5.97 3.59 9.62 3.59h106.94c10.11 0 19.5-7.88 19.5-20.12l-48-48Zm-87.24 61.05c-.39-.42-1.04-1.41-1.33-1.97l110.15-.07c8.73-.93 15.76-7.65 17.14-16.05l6.28 6.28c-.33 8.79-7.66 15.89-16.49 15.89H65.58c-3.49 0-6.42-1.3-8.8-4.07ZM36.17 52.05l-6.16-6.16c0-9.53 7.42-15.88 15.5-15.88 111.04 0 108.78-.22 111.07.4 2.04.54 3.81 1.64 5.15 3.05l2.65 2.66-111.69-.02c-8.09.69-15.39 7.25-16.51 15.95Zm-9-9-6.16-6.16c0-9.53 7.42-15.88 15.5-15.88 111.05 0 108.67-.22 111.06.39 2.08.57 3.85 1.68 5.16 3.07l2.66 2.66-111.7-.03c-8.09.69-15.39 7.25-16.51 15.95Zm-9-9-6.16-6.16c0-9.53 7.42-15.88 15.5-15.88h107.93c3.16.02 5.86 1.12 7.91 3.08l3.04 3.04-111.7-.03c-7.81.67-15.35 6.97-16.51 15.95ZM25.69 9.1c-8.3.71-15.42 7.44-16.51 15.95l-6.16-6.16c0-9.53 7.42-15.88 15.5-15.88h107.94c3.15 0 5.95 1.13 8.08 3.27l2.85 2.84L25.7 9.1Zm13.32 45.79c0-9.53 7.42-15.88 15.5-15.88 111.05-.01 108.71-.23 111.05.39 3.51.95 5.01 2.91 7.82 5.73-1.57-.21 0-.13-108.88-.13-9.45 0-17.61 7-19.22 16.18L39 54.89Zm125.72 93.95 6.28 6.28c0 .72-.18 1.89-.22 2.17-1.23 7.58-7.99 13.72-16.27 13.72H56.04c1.24-1.8 2.76-2.8 6.76-6.01 85.57.01 83.7.14 85.67-.22 8.52-1.27 14.91-8.06 16.25-15.94Zm9.71 27.01c-2.48 2.36-6.64 4.16-10.93 4.16-109.1-.03-107.68.08-109.22-.21-.42-2.02-.3-4.03.26-5.79l102.03-.11c5.22-.55 10.16-3.22 13.54-7.72 1.21-1.6 1.77-2.86 2.04-3.37v-.03c.72-1.51 1.28-3.27 1.56-4.92l6.27 6.27c0 3.85-1.97 8.59-5.56 11.73Zm-18.71-36.01 6.28 6.27c0 .14 0 .27-.03.46-.46 8.15-7.34 15.44-16.46 15.44H66.57l7.48-6c67.01 0 64.18.35 68.1-.82 1.13-.37 1.96-.67 3.13-1.26 4.74-2.24 9.26-7.38 10.46-14.08Zm-2.73-2.73c0 .41-.1 1.61-.38 2.96-1.76 7.76-8.55 12.94-16.11 12.94H77.79l7.5-6h42.22c9.45 0 17.61-6.99 19.21-16.17l6.28 6.27Zm25.63-68.63L56.51 166.19c-1.69 1.34-3.02 2.96-3.96 4.82l-.43.92c-.95 2.3-1.29 4.89-.93 7.48l-3.3-3.3c-4.03-4.75-4.01-12.2 1.5-16.58l122.12-97.71c3.68-2.94 5.67-7.26 5.45-11.83 0-.3-.04-.55-.04-.66 6.78 3.59 8.58 13.66 1.72 19.15ZM42.19 170.46c-2.72-2.72-4.63-4.19-5.69-7.81-1.25-4.37 0-9.01 3.89-12.11l123.4-98.85c.92-.88 2.02-2.34 2.64-3.59.07-.13-.49-.09 5.03-.09.84 0 1.61.1 2.28.22 0 0 .04.17.04.18.81 3.97-.61 8.28-4.12 11.08L47.53 157.2c-4.18 3.34-6.04 8.23-5.33 13.26Zm-9-9c-2.75-2.75-4.68-4.26-5.69-7.81-1.24-4.35 0-9.01 3.88-12.13L148.28 48h14.7c-.49.69-1.09 1.37-1.77 1.98l-122.7 98.2c-4.22 3.4-6.02 8.31-5.32 13.28Zm-8.99-9c-2.87-2.87-2.63-2.62-2.89-2.91-4.43-4.56-4.62-12.47 1.07-17.03l105.65-84.53h15.45L29.51 139.18c-4.19 3.35-6.02 8.28-5.32 13.28Zm-10.81-28.92L107.78 48h15.45L20.51 130.18c-4.11 3.29-6.05 8.23-5.33 13.25l-2.69-2.69c-4.62-4.62-4.87-12.6.9-17.21Z"/></svg>
