<svg width="1em" height="1em" viewBox="0 0 24 24" xmlns="http://www.w3.org/2000/svg"><g fill="none" class="nc-icon-wrapper"><path d="M9.42383 3.39355C8.55717 3.61022 8.12343 3.71934 7.80078 3.96094C7.51632 4.17406 7.29393 4.45941 7.15625 4.78711C7.00022 5.15863 7 5.60513 7 6.49805V17.502C7 18.3949 7.00022 18.8414 7.15625 19.2129C7.29393 19.5406 7.51632 19.8259 7.80078 20.0391C8.12343 20.2807 8.55716 20.3898 9.42383 20.6064L11 21H7.40039C5.16018 21 4.03924 21.0004 3.18359 20.5645C2.43109 20.181 1.81902 19.5689 1.43555 18.8164C0.999573 17.9608 1 16.8398 1 14.5996V9.40039C1 7.16018 0.999573 6.03924 1.43555 5.18359C1.81902 4.43109 2.43109 3.81902 3.18359 3.43555C4.03924 2.99957 5.16018 3 7.40039 3H11L9.42383 3.39355ZM15 15.5C15.8284 15.5 16.5 16.1716 16.5 17C16.5 17.8284 15.8284 18.5 15 18.5H13C12.1716 18.5 11.5 17.8284 11.5 17C11.5 16.1716 12.1716 15.5 13 15.5H15ZM20 12C20.8284 12 21.5 12.6716 21.5 13.5C21.5 14.3284 20.8284 15 20 15H15C14.1716 15 13.5 14.3284 13.5 13.5C13.5 12.6716 14.1716 12 15 12H20ZM16 8.5C16.8284 8.5 17.5 9.17157 17.5 10C17.5 10.8284 16.8284 11.5 16 11.5H13C12.1716 11.5 11.5 10.8284 11.5 10C11.5 9.17157 12.1716 8.5 13 8.5H16ZM10.1533 5.50781C10.9097 5.58461 11.5 6.22334 11.5 7C11.5 7.77666 10.9097 8.41539 10.1533 8.49219L10 8.5H9C8.17157 8.5 7.5 7.82843 7.5 7C7.5 6.17157 8.17157 5.5 9 5.5H10L10.1533 5.50781Z" fill="url(#nepbuo0koh-1752500502779-6353005_code-editor_existing_0_gs8ov81vs)" data-glass="origin" mask="url(#nepbuo0koh-1752500502779-6353005_code-editor_mask_qbqf3x7kx)"></path><path d="M9.42383 3.39355C8.55717 3.61022 8.12343 3.71934 7.80078 3.96094C7.51632 4.17406 7.29393 4.45941 7.15625 4.78711C7.00022 5.15863 7 5.60513 7 6.49805V17.502C7 18.3949 7.00022 18.8414 7.15625 19.2129C7.29393 19.5406 7.51632 19.8259 7.80078 20.0391C8.12343 20.2807 8.55716 20.3898 9.42383 20.6064L11 21H7.40039C5.16018 21 4.03924 21.0004 3.18359 20.5645C2.43109 20.181 1.81902 19.5689 1.43555 18.8164C0.999573 17.9608 1 16.8398 1 14.5996V9.40039C1 7.16018 0.999573 6.03924 1.43555 5.18359C1.81902 4.43109 2.43109 3.81902 3.18359 3.43555C4.03924 2.99957 5.16018 3 7.40039 3H11L9.42383 3.39355ZM15 15.5C15.8284 15.5 16.5 16.1716 16.5 17C16.5 17.8284 15.8284 18.5 15 18.5H13C12.1716 18.5 11.5 17.8284 11.5 17C11.5 16.1716 12.1716 15.5 13 15.5H15ZM20 12C20.8284 12 21.5 12.6716 21.5 13.5C21.5 14.3284 20.8284 15 20 15H15C14.1716 15 13.5 14.3284 13.5 13.5C13.5 12.6716 14.1716 12 15 12H20ZM16 8.5C16.8284 8.5 17.5 9.17157 17.5 10C17.5 10.8284 16.8284 11.5 16 11.5H13C12.1716 11.5 11.5 10.8284 11.5 10C11.5 9.17157 12.1716 8.5 13 8.5H16ZM10.1533 5.50781C10.9097 5.58461 11.5 6.22334 11.5 7C11.5 7.77666 10.9097 8.41539 10.1533 8.49219L10 8.5H9C8.17157 8.5 7.5 7.82843 7.5 7C7.5 6.17157 8.17157 5.5 9 5.5H10L10.1533 5.50781Z" fill="url(#nepbuo0koh-1752500502779-6353005_code-editor_existing_0_gs8ov81vs)" data-glass="clone" filter="url(#nepbuo0koh-1752500502779-6353005_code-editor_filter_24ly62tit)" clip-path="url(#nepbuo0koh-1752500502779-6353005_code-editor_clipPath_bhp8xtrhs)"></path><path d="M16.5996 3C18.8398 3 19.9608 2.99957 20.8164 3.43555C21.5689 3.81902 22.181 4.43109 22.5645 5.18359C23.0004 6.03924 23 7.16018 23 9.40039V14.5996C23 16.8398 23.0004 17.9608 22.5645 18.8164C22.181 19.5689 21.5689 20.181 20.8164 20.5645C19.9608 21.0004 18.8398 21 16.5996 21H11.4004C9.16018 21 8.03924 21.0004 7.18359 20.5645C6.43109 20.181 5.81902 19.5689 5.43555 18.8164C4.99957 17.9608 5 16.8398 5 14.5996V9.40039C5 7.16018 4.99957 6.03924 5.43555 5.18359C5.81902 4.43109 6.43109 3.81902 7.18359 3.43555C8.03924 2.99957 9.16018 3 11.4004 3H16.5996ZM13 16C12.4477 16 12 16.4477 12 17C12 17.5523 12.4477 18 13 18H15C15.5523 18 16 17.5523 16 17C16 16.4477 15.5523 16 15 16H13ZM15 12.5C14.4477 12.5 14 12.9477 14 13.5C14 14.0523 14.4477 14.5 15 14.5H20C20.5523 14.5 21 14.0523 21 13.5C21 12.9477 20.5523 12.5 20 12.5H15ZM13 9C12.4477 9 12 9.44772 12 10C12 10.5523 12.4477 11 13 11H16C16.5523 11 17 10.5523 17 10C17 9.44772 16.5523 9 16 9H13ZM9 6C8.44772 6 8 6.44772 8 7C8 7.55228 8.44772 8 9 8H10C10.5523 8 11 7.55228 11 7C11 6.44772 10.5523 6 10 6H9Z" fill="url(#nepbuo0koh-1752500502779-6353005_code-editor_existing_1_nb13hb1tf)" data-glass="blur"></path><path d="M16.5996 3C18.8398 3 19.9608 2.99957 20.8164 3.43555C21.5689 3.81902 22.181 4.43109 22.5645 5.18359C23.0004 6.03924 23 7.16018 23 9.40039V14.5996C23 16.8398 23.0004 17.9608 22.5645 18.8164C22.181 19.5689 21.5689 20.181 20.8164 20.5645C19.9608 21.0004 18.8398 21 16.5996 21H11.4004C9.16018 21 8.03924 21.0004 7.18359 20.5645C6.43109 20.181 5.81902 19.5689 5.43555 18.8164C4.99957 17.9608 5 16.8398 5 14.5996V9.40039C5 7.16018 4.99957 6.03924 5.43555 5.18359C5.81902 4.43109 6.43109 3.81902 7.18359 3.43555C8.03924 2.99957 9.16018 3 11.4004 3H16.5996ZM11.4004 3.75C10.268 3.75 9.4636 3.75045 8.83398 3.80176C8.2133 3.85235 7.8287 3.94856 7.52441 4.10352C6.913 4.41508 6.41508 4.913 6.10352 5.52441C5.94856 5.8287 5.85235 6.2133 5.80176 6.83398C5.75045 7.4636 5.75 8.268 5.75 9.40039V14.5996C5.75 15.732 5.75045 16.5364 5.80176 17.166C5.85235 17.7867 5.94856 18.1713 6.10352 18.4756C6.41508 19.087 6.913 19.5849 7.52441 19.8965C7.8287 20.0514 8.2133 20.1476 8.83398 20.1982C9.4636 20.2495 10.268 20.25 11.4004 20.25H16.5996C17.732 20.25 18.5364 20.2495 19.166 20.1982C19.7867 20.1476 20.1713 20.0514 20.4756 19.8965C21.087 19.5849 21.5849 19.087 21.8965 18.4756C22.0514 18.1713 22.1476 17.7867 22.1982 17.166C22.2495 16.5364 22.25 15.732 22.25 14.5996V9.40039C22.25 8.268 22.2495 7.4636 22.1982 6.83398C22.1476 6.2133 22.0514 5.8287 21.8965 5.52441C21.5849 4.913 21.087 4.41508 20.4756 4.10352C20.1713 3.94856 19.7867 3.85235 19.166 3.80176C18.5364 3.75045 17.732 3.75 16.5996 3.75H11.4004Z" fill="url(#nepbuo0koh-1752500502779-6353005_code-editor_existing_2_9p0khepk8)"></path><defs><linearGradient id="nepbuo0koh-1752500502779-6353005_code-editor_existing_0_gs8ov81vs" x1="11.25" y1="3" x2="11.25" y2="21" gradientUnits="userSpaceOnUse"><stop stop-color="rgba(87, 87, 87, 1)" data-glass-11="on"></stop><stop offset="1" stop-color="rgba(21, 21, 21, 1)" data-glass-12="on"></stop></linearGradient><linearGradient id="nepbuo0koh-1752500502779-6353005_code-editor_existing_1_nb13hb1tf" x1="14" y1="3" x2="14" y2="21" gradientUnits="userSpaceOnUse"><stop stop-color="rgba(227, 227, 229, 0.6)" data-glass-21="on"></stop><stop offset="1" stop-color="rgba(187, 187, 192, 0.6)" data-glass-22="on"></stop></linearGradient><linearGradient id="nepbuo0koh-1752500502779-6353005_code-editor_existing_2_9p0khepk8" x1="14" y1="3" x2="14" y2="13.424" gradientUnits="userSpaceOnUse"><stop stop-color="rgba(255, 255, 255, 1)" data-glass-light="on"></stop><stop offset="1" stop-color="rgba(255, 255, 255, 1)" stop-opacity="0" data-glass-light="on"></stop></linearGradient><filter id="nepbuo0koh-1752500502779-6353005_code-editor_filter_24ly62tit" x="-100%" y="-100%" width="400%" height="400%" filterUnits="objectBoundingBox" primitiveUnits="userSpaceOnUse"><feGaussianBlur stdDeviation="2" x="0%" y="0%" width="100%" height="100%" in="SourceGraphic" edgeMode="none" result="blur"></feGaussianBlur></filter><clipPath id="nepbuo0koh-1752500502779-6353005_code-editor_clipPath_bhp8xtrhs"><path d="M16.5996 3C18.8398 3 19.9608 2.99957 20.8164 3.43555C21.5689 3.81902 22.181 4.43109 22.5645 5.18359C23.0004 6.03924 23 7.16018 23 9.40039V14.5996C23 16.8398 23.0004 17.9608 22.5645 18.8164C22.181 19.5689 21.5689 20.181 20.8164 20.5645C19.9608 21.0004 18.8398 21 16.5996 21H11.4004C9.16018 21 8.03924 21.0004 7.18359 20.5645C6.43109 20.181 5.81902 19.5689 5.43555 18.8164C4.99957 17.9608 5 16.8398 5 14.5996V9.40039C5 7.16018 4.99957 6.03924 5.43555 5.18359C5.81902 4.43109 6.43109 3.81902 7.18359 3.43555C8.03924 2.99957 9.16018 3 11.4004 3H16.5996ZM13 16C12.4477 16 12 16.4477 12 17C12 17.5523 12.4477 18 13 18H15C15.5523 18 16 17.5523 16 17C16 16.4477 15.5523 16 15 16H13ZM15 12.5C14.4477 12.5 14 12.9477 14 13.5C14 14.0523 14.4477 14.5 15 14.5H20C20.5523 14.5 21 14.0523 21 13.5C21 12.9477 20.5523 12.5 20 12.5H15ZM13 9C12.4477 9 12 9.44772 12 10C12 10.5523 12.4477 11 13 11H16C16.5523 11 17 10.5523 17 10C17 9.44772 16.5523 9 16 9H13ZM9 6C8.44772 6 8 6.44772 8 7C8 7.55228 8.44772 8 9 8H10C10.5523 8 11 7.55228 11 7C11 6.44772 10.5523 6 10 6H9Z" fill="url(#nepbuo0koh-1752500502779-6353005_code-editor_existing_1_nb13hb1tf)"></path></clipPath><mask id="nepbuo0koh-1752500502779-6353005_code-editor_mask_qbqf3x7kx"><rect width="100%" height="100%" fill="#FFF"></rect><path d="M16.5996 3C18.8398 3 19.9608 2.99957 20.8164 3.43555C21.5689 3.81902 22.181 4.43109 22.5645 5.18359C23.0004 6.03924 23 7.16018 23 9.40039V14.5996C23 16.8398 23.0004 17.9608 22.5645 18.8164C22.181 19.5689 21.5689 20.181 20.8164 20.5645C19.9608 21.0004 18.8398 21 16.5996 21H11.4004C9.16018 21 8.03924 21.0004 7.18359 20.5645C6.43109 20.181 5.81902 19.5689 5.43555 18.8164C4.99957 17.9608 5 16.8398 5 14.5996V9.40039C5 7.16018 4.99957 6.03924 5.43555 5.18359C5.81902 4.43109 6.43109 3.81902 7.18359 3.43555C8.03924 2.99957 9.16018 3 11.4004 3H16.5996ZM13 16C12.4477 16 12 16.4477 12 17C12 17.5523 12.4477 18 13 18H15C15.5523 18 16 17.5523 16 17C16 16.4477 15.5523 16 15 16H13ZM15 12.5C14.4477 12.5 14 12.9477 14 13.5C14 14.0523 14.4477 14.5 15 14.5H20C20.5523 14.5 21 14.0523 21 13.5C21 12.9477 20.5523 12.5 20 12.5H15ZM13 9C12.4477 9 12 9.44772 12 10C12 10.5523 12.4477 11 13 11H16C16.5523 11 17 10.5523 17 10C17 9.44772 16.5523 9 16 9H13ZM9 6C8.44772 6 8 6.44772 8 7C8 7.55228 8.44772 8 9 8H10C10.5523 8 11 7.55228 11 7C11 6.44772 10.5523 6 10 6H9Z" fill="#000"></path></mask></defs></g></svg>
