<svg viewBox="0 0 1247 961" fill="none" xmlns="http://www.w3.org/2000/svg"><path fill-rule="evenodd" clip-rule="evenodd" d="M263.166 4.245C265 6.58 275.5 19.303 286.5 32.518s21.231 25.592 22.735 27.505c6.58 8.365 31.845 41.972 35.306 46.963 36.51 52.643 58.761 91.769 82.829 145.64 1.996 4.469 3.63 8.393 3.63 8.72 0 .327 1.067 2.971 2.372 5.874 6.236 13.883 20.976 55.23 26.122 73.28.941 3.3 2.095 7.125 2.564 8.5.469 1.375 1.149 4.638 1.511 7.25.595 4.294.467 4.75-1.33 4.75-1.093 0-4.663-2.587-7.932-5.75-26.859-25.981-51.062-46.234-71.187-59.568-10.637-7.048-33.538-18.562-46.62-23.44-21.452-7.998-37.472-11.077-62-11.917-16.387-.562-35.132.879-48 3.688-15.862 3.463-19.96 4.453-27.5 6.64-4.675 1.356-11.538 3.564-15.25 4.906-3.712 1.343-10.012 3.615-14 5.05-16.964 6.103-68.507 26.796-85.25 34.225-12.348 5.478-27.872 13.701-27.689 14.666.104.55 1.426 1.37 2.939 1.823 1.512.453 3.65 1.208 4.75 1.679 1.1.47 4.475 1.594 7.5 2.498 3.025.904 6.4 2.012 7.5 2.464 1.1.452 10.1 3.862 20 7.577 9.9 3.716 18.45 7.071 19 7.456.55.385 4.6 2.142 9 3.904 9.266 3.711 8.484 3.366 23.637 10.441 18.123 8.461 34.022 17.969 54.363 32.509 10.143 7.251 28.285 22.994 40.505 35.149 25.638 25.501 45.203 52.188 59.019 80.5 7.53 15.432 10.468 22.903 8.746 22.242-.712-.273-7.589-5.1-15.282-10.727-16.62-12.154-56.877-39.134-61.343-41.111-1.73-.766-3.145-1.732-3.145-2.148 0-.416-.385-.756-.857-.756-.471 0-4.858-2.315-9.75-5.145-8.359-4.837-38.539-19.855-39.898-19.855-.343 0-3.057-1.113-6.032-2.474-2.976-1.361-6.659-2.773-8.186-3.138-1.528-.365-3.227-.978-3.777-1.362-.55-.384-3.7-1.483-7-2.442-3.3-.959-7.125-2.12-8.5-2.579-1.375-.46-5.65-1.581-9.5-2.492-3.85-.911-8.575-2.045-10.5-2.52-9.02-2.226-44.678-6.649-45.663-5.664-.298.298 1.192.841 3.311 1.207 53.64 9.264 97.468 25.263 144.852 52.878 22.579 13.159 70.873 47.808 79.424 56.984l2.425 2.602-2.425-.024c-1.333-.013-3.999-.432-5.924-.931-1.925-.499-8-2.083-13.5-3.521-15.336-4.01-26.054-5.514-49.833-6.99-27.214-1.69-60.463-.387-74.667 2.926-13.631 3.179-42.361 15.886-60.002 26.539-10.394 6.277-26.033 16.689-26.998 17.975-.275.366-3.12 2.585-6.322 4.931-6.653 4.873-26.605 21.315-37.651 31.025a2079.55 2079.55 0 0 1-10.5 9.181c-1.665 1.437-7.302 6.427-12.527 11.09-5.225 4.664-10.512 9.326-11.75 10.361-1.238 1.035-2.25 2.186-2.25 2.556 0 .371 6.637.958 14.75 1.305 83.617 3.58 124.886 8.394 154.693 18.045 2.231.723 6.757 2.13 10.057 3.126 3.3.997 7.125 2.393 8.5 3.103 1.375.71 3.261 1.293 4.191 1.297.93.003 1.969.456 2.309 1.006.34.55 1.379 1.005 2.309 1.012 6.251.045 81.313 42.124 92.131 51.648 2.169 1.909-13.15 7.403-37.44 13.428-4.088 1.014-17.815 5.09-25 7.424-15.486 5.031-40.803 16.226-55 24.322-16.81 9.585-25.109 14.459-25.895 15.205-.946.899.938 1.445 8.395 2.433 13.224 1.751 32.12 4.881 42.5 7.04 14.468 3.009 15.947 3.344 21.5 4.869 10.377 2.85 13.522 3.808 25 7.615 11.333 3.759 19.618 6.82 25.5 9.422 1.65.729 5.025 2.161 7.5 3.181 6.24 2.572 41.725 20.219 46 22.876 1.925 1.197 6.99 4.056 11.255 6.355 8.862 4.776 35.92 21.56 40.148 24.903 1.553 1.228 2.6 2.816 2.327 3.529-.274.713-11.185 8.911-24.246 18.218-18.789 13.387-23.356 17.069-21.867 17.625 1.036.387 6.383 1.242 11.883 1.901 11.549 1.384 25.795 3.546 33 5.008 2.75.558 9.725 1.964 15.5 3.125s12.075 2.464 14 2.896c7.278 1.631 16.627 3.91 20 4.875 1.925.55 5.975 1.657 9 2.459 17.441 4.624 33.27 10.395 40.186 14.651 2.664 1.639 5.267 2.98 5.784 2.98.517 0 1.215-1.688 1.552-3.75 1.318-8.064 1.728-9.445 4.026-13.557 2.323-4.155 2.343-4.402.886-10.723-2.162-9.384-6.301-19.731-9.121-22.803-1.347-1.467-2.663-2.217-2.925-1.667-.261.55-1.468 3.025-2.682 5.5l-2.206 4.5-5-.322c-11.058-.712-25.227-8.93-39.858-23.118-15.826-15.348-27.989-32.057-39.672-54.504-24.317-46.717-32.23-91.169-20.41-114.646 2.503-4.97 8.092-10.447 12.291-12.043 8.335-3.169 19.469 5.307 38.267 29.133 11.533 14.617 25.079 27.83 32.177 31.388 3.17 1.588 5.987 2.664 6.26 2.39.274-.273-1.037-3.373-2.912-6.888-4.222-7.914-7.552-17.312-8.765-24.736-3.928-24.039-6.233-64.199-3.771-65.72 1.382-.854 3.709 1.689 11.953 13.066 8.054 11.115 16.432 24.255 17.365 27.233.602 1.922.139 2.457-3.312 3.838-3.424 1.37-4.227 2.288-5.485 6.267-2.122 6.707-3.244 29.128-1.466 29.265.736.057 8.763.033 17.838-.054 24.53-.234 29.666 1.156 39.769 10.766 6.924 6.586 9.271 10.8 11.802 21.185 1.005 4.125 2.394 8.14 3.087 8.923 1.064 1.202 1.422.998 2.301-1.315.573-1.506 1.041-3.299 1.041-3.985 0-1.604 3.731-5.623 5.221-5.623.628 0 4.774 3.487 9.213 7.75C568.858 818.283 601.14 845 604.732 845c5.954 0-7.171-17.344-47.453-62.707C548.876 772.83 542 764.628 542 764.067c0-1.529 13.718-35.846 19.015-47.567 2.258-4.998 7.645-16.67 12.23-26.5 1.924-4.125 4.513-9.75 5.754-12.5 8.389-18.601 33.285-66.688 37.017-71.5l1.94-2.5.022 2.602c.012 1.432-2.162 9.307-4.83 17.5-5.062 15.54-7.526 23.489-9.113 29.398-.517 1.925-1.624 5.975-2.461 9-1.8 6.507-8.269 33.221-9.509 39.271-5 24.388-8.499 43.894-10.088 56.229-4.388 34.073-4.237 32.5-3.108 32.5.478 0 1.13-1.463 1.449-3.25.319-1.787 1.309-6.625 2.201-10.75.892-4.125 2.714-13.8 4.05-21.5 2.758-15.889 2.703-15.596 6.065-32.5 3.495-17.576 7.16-33.404 10.421-45 3.187-11.332 8.021-27.426 8.861-29.5.446-1.1 1.585-4.475 2.532-7.5.947-3.025 2.086-6.4 2.531-7.5.445-1.1 1.574-4.25 2.508-7 2.539-7.471 6.562-18.731 7.503-21 .456-1.1 2.389-5.825 4.294-10.5 5.876-14.418 7.146-17 8.365-17 1.956 0 9.826 28.743 15.882 58 .74 3.575 2.017 9.65 2.838 13.5 6.524 30.606 7.893 47.918 5.592 70.711-2.223 22.025-6.568 40.576-16.463 70.289-3.48 10.45-6.12 19.209-5.866 19.464.254.255 1.708-.87 3.232-2.5 5.236-5.604 34.654-41.244 49.136-59.529 25.27-31.906 31.683-41.159 37.724-54.435 5.749-12.633 6.944-19.559 9.449-54.75.655-9.213 1.475-16.75 1.82-16.75 1.178 0 3.4 10.848 5.632 27.5 2.824 21.067 3.375 26.959 3.375 36.077 0 10.029-1.574 20.66-4.506 30.423-3.692 12.298-11.831 37.967-13.158 41.5-1.289 3.432-3.433 5.349-15.098 13.5-15.106 10.555-19.456 13.719-39.738 28.903-18.012 13.485-23.107 17.602-33.631 27.173C635.804 835.23 631 841.884 631 846.671c0 1.831.223 3.329.495 3.329s3.31-2.279 6.75-5.065c6.326-5.122 40.304-28.041 46.755-31.538 1.925-1.043 3.725-2.122 4.001-2.397.275-.275 2.075-1.34 4-2.366 31.385-16.739 43.076-21.083 71.999-26.753 5.496-1.077 10.249-2.907 11.235-4.324.404-.581.741-2.591.75-4.467.012-2.743 1.056-4.501 5.346-9 2.933-3.074 7.079-8.627 9.213-12.34 2.135-3.713 4.17-6.75 4.522-6.75.738 0 1.934 12.771 1.934 20.651 0 3.651.397 5.326 1.25 5.277.688-.04 4.625-5.276 8.75-11.638 16.858-25.995 29.197-39.8 40.588-45.408l6.647-3.272 3.601 1.945c7.149 3.861 10.789 12.886 12.278 30.445 2.15 25.344-3.432 56.322-14.711 81.651-.772 1.733-1.403 3.395-1.403 3.692 0 .895-10.756 22.756-14.078 28.614-11.276 19.879-31.775 42.698-46.071 51.283-9.672 5.809-20.333 9.677-27.576 10.005l-5.634.255-1.18-4.5-1.18-4.5-2.244 5c-4.309 9.601-11.121 27.822-10.83 28.97.291 1.148 7.672.348 21.293-2.308 11.527-2.248 21.252-4.216 25-5.06a448.55 448.55 0 0 1 9.5-1.983c5.33-1.049 10.752-2.294 18-4.134 1.925-.488 6.875-1.607 11-2.485 4.125-.878 9.075-2.013 11-2.522 1.925-.509 11.15-2.768 20.5-5.019 17.466-4.206 28.5-7.672 28.5-8.954 0-.981-9.723-6.123-25.883-13.686-14.16-6.627-18.117-8.852-18.117-10.186 0-.858 9.555-2.883 26.5-5.616 5.5-.887 12.475-2.031 15.5-2.543 3.025-.511 12.925-2.075 22-3.476 18.003-2.779 32.16-4.993 41.5-6.49 3.3-.529 10.725-1.66 16.5-2.513s12.75-1.968 15.5-2.477c2.75-.509 9.95-1.635 16-2.502 11.71-1.678 19.42-2.907 31.5-5.023 4.12-.723 9.19-1.6 11.25-1.949 2.06-.349 3.75-.974 3.75-1.388 0-.415-1.69-1.359-3.75-2.099-2.06-.739-6-2.381-8.75-3.648-2.75-1.268-16.93-7.069-31.5-12.893-14.575-5.824-27.4-10.98-28.5-11.458-1.1-.478-11.939-4.99-24.086-10.025-12.147-5.035-23.555-10.049-25.35-11.14l-3.264-1.985 2.35-2.068c9.988-8.789 65.834-45.403 92.35-60.547 17.49-9.987 56.43-29.757 76-38.584 5.5-2.481 13.15-5.942 17-7.692 3.85-1.75 8.97-4.073 11.38-5.163 2.4-1.09 6.45-2.805 9-3.811 2.54-1.006 7.32-3.036 10.62-4.511 3.3-1.474 7.35-3.278 9-4.008 1.65-.73 12.9-5.215 25-9.968s22.9-9.048 24-9.545c1.1-.496 10.32-3.885 20.5-7.53 26.74-9.577 27.01-9.683 27.67-10.761 1.14-1.848-2.02-3.113-40.67-16.276-13.48-4.589-27.2-9.089-30.5-9.999-13.27-3.661-36.27-9.592-40.5-10.447-43.02-8.689-63.58-11.422-94.62-12.578-16.92-.63-20.25-1.2-18.99-3.244 1.21-1.95 23.9-16.038 46.61-28.939 1.92-1.094 6.65-3.778 10.5-5.965 19.61-11.138 23.34-13.166 36.5-19.823 10.98-5.554 26.67-12.613 33.5-15.068 2.2-.791 8.01-2.796 12.9-4.454 11.87-4.022 13.05-4.685 11.54-6.497-.65-.786-2.22-1.43-3.49-1.43s-6.95-.916-12.63-2.037c-5.67-1.12-14.14-2.742-18.82-3.605-4.68-.862-10.75-1.991-13.5-2.508-47.61-8.955-78.46-11.292-139-10.532-22.55.283-44.6.986-49 1.562-4.4.576-14.975 1.757-23.5 2.625-8.525.869-16.85 1.785-18.5 2.037-6.428.981-28.309 3.64-34.077 4.141l-6.078.528-3.767-9.855c-12.817-33.532-27.481-57.54-46.971-76.903-5.009-4.975-11.132-10.65-13.607-12.61-11-8.712-30.329-19.753-44.43-25.377-2.711-1.081-8.111-3.323-12-4.981l-7.07-3.015-.705-17.485c-.388-9.617-1.199-31.435-1.802-48.485-1.76-49.744-3.437-70.437-8.631-106.5-.832-5.775-1.906-12.3-2.387-14.5-.48-2.2-1.598-8.05-2.484-13-.886-4.95-1.983-10.125-2.439-11.5-.455-1.375-1.628-6.1-2.606-10.5-3.231-14.535-12.729-44.801-16.902-53.857-.796-1.728-2.842-6.743-4.545-11.143-1.704-4.4-3.975-9.908-5.048-12.239-1.073-2.332-1.951-4.498-1.951-4.814 0-.316-1.066-2.909-2.368-5.761A568.996 568.996 0 0 1 669.915 40c-2.869-6.72-14.803-30.136-16.029-31.45-1.536-1.647-1.002 2.533 2.174 17.005 10.538 48.024 17.684 93.904 20.862 133.945 3.167 39.894-1.065 106.5-6.766 106.5-.841 0-2.492-7.997-7.637-37-2.998-16.898-6.573-35.573-7.465-39a846.735 846.735 0 0 1-2.605-10.5c-2.921-12.072-6.602-25.918-7.445-28-.445-1.1-2.829-8.3-5.297-16-4.915-15.331-10.061-29.153-17.811-47.836-7.056-17.01-16.106-36.787-16.606-36.287-.378.377 3.949 13.37 6.534 19.623.568 1.375 2.227 5.875 3.685 10 1.458 4.125 3.065 8.4 3.571 9.5 1.884 4.095 18.92 56.665 18.92 58.382 0 .981.337 2.122.749 2.534.412.412 1.275 2.85 1.917 5.417.642 2.567 2.387 8.942 3.877 14.167 2.792 9.791 3.16 11.291 5.89 24 4.423 20.588 11.154 66.616 12.249 83.75.632 9.906-.282 11.746-2.981 6-4.331-9.222-8.145-17.956-15.173-34.75-4.258-10.175-9.044-21.294-10.635-24.708-1.591-3.415-2.893-6.481-2.893-6.813 0-.333-4.033-8.887-8.962-19.01-18.915-38.846-34.133-58.072-66.268-83.721-18.138-14.476-34.728-25.274-57.27-37.271C487.199 72.462 474.268 66 473.533 66c-.228 0-4.226-1.769-8.884-3.931C454.268 57.251 423.422 45 421.673 45c-.7 0-1.7-.394-2.223-.876-.95-.877-34.637-12.299-45.95-15.581-3.3-.957-8.475-2.576-11.5-3.598-3.025-1.023-7.3-2.289-9.5-2.815-2.2-.526-6.7-1.718-10-2.65-8.154-2.303-10.104-2.813-24.5-6.399-6.875-1.713-14.975-3.771-18-4.574-3.025-.803-10.675-2.616-17-4.029-6.325-1.413-13.127-2.999-15.116-3.524C265.895.429 263.27 0 262.05 0c-2.115 0-2.064.196 1.116 4.245ZM603.5 49c.34.55.816 1 1.059 1s.441-.45.441-1-.477-1-1.059-1-.781.45-.441 1Zm-88.503 514.608c-6.246 23.416-7.955 40.473-7.956 79.392 0 30.782 1.249 53.342 3.931 71 1.295 8.526 1.284 14.724-.028 15.534-.58.359-3.393-.26-6.25-1.375-2.857-1.116-9.919-2.528-15.694-3.138-18.255-1.929-16.174-.516-19.405-13.176-5.566-21.811-6.932-43.335-4.108-64.744 2.001-15.174 5.328-25.727 13.219-41.934 6.58-13.515 22.879-37.199 33.763-49.061 3.451-3.761 4.074-4.106 4.332-2.392.165 1.101-.646 5.553-1.804 9.894Z" fill="currentColor"/></svg>
