<svg viewBox="0 0 846 1051" fill="none" xmlns="http://www.w3.org/2000/svg"><path fill-rule="evenodd" clip-rule="evenodd" d="M481.585 4.75c-.378 2.613-1.099 8.35-1.603 12.75-4.048 35.396-8.995 68.841-11.924 80.62-3.392 13.638-8.734 30.612-12.08 38.38-6.912 16.048-15.241 29.9-23.162 38.521-1.274 1.386-5.45 6.111-9.28 10.5-22.153 25.385-68.141 72.547-78.231 80.229-5.519 4.202-9.31 5.425-9.3 3 .003-.687 1.535-7.325 3.404-14.75 3.921-15.578 8.472-28.615 18.325-52.5 9.761-23.663 13.758-34.479 16.812-45.5 5.402-19.495 6.424-26 4.084-26-.784 0-4.734 2.566-8.778 5.703-6.722 5.214-10.839 8.567-25.341 20.643C298.152 194.945 241.089 260.878 215.855 305c-7.525 13.158-16.279 31.216-22.298 46a954.946 954.946 0 0 1-3.602 8.75c-.525 1.237-1.383 3.263-1.905 4.5-1.678 3.974-11.59 28.831-17.047 42.75-2.911 7.425-6.353 15.834-7.648 18.686-1.295 2.852-2.355 5.61-2.355 6.127 0 .518-.647 1.479-1.438 2.135-1.854 1.539-3.629-1.734-6.205-11.448-1.627-6.133-1.852-10.9-1.814-38.5.024-17.325.575-38.7 1.224-47.5 2.327-31.552 2.448-38.48.687-39.156-4.154-1.594-27.459 19.258-38.924 34.826-15.386 20.893-29.888 50.544-38.067 77.83-.906 3.025-2.026 6.625-2.487 8-.462 1.375-1.557 5.65-2.433 9.5-.877 3.85-2.017 8.8-2.535 11-6.671 28.334-10.682 76.507-9.658 116 .558 21.533 2.117 50.884 3.093 58.25.637 4.804-1.427 4.142-7.374-2.365C38.913 592.708 31.537 577.292 18.043 533c-4.86-15.952-5.229-17.125-7.066-22.437l-1.707-4.936-1.135 6.518c-.624 3.586-1.132 8.057-1.128 9.937.003 1.88-.439 6.793-.983 10.918-8.357 63.341-7.455 131.529 2.388 180.5 2.46 12.241 6.14 27.4 7.525 31 .424 1.1 2.263 6.725 4.088 12.5 4.121 13.037 12.764 33.909 18.429 44.5 8.957 16.749 10.397 19.114 26.984 44.348 4.765 7.249 8.389 13.623 8.054 14.166-1.342 2.17-22.337-.473-39.33-4.952-7.964-2.098-23.63-5.608-28.912-6.477-2.55-.42-3.25-.186-3.25 1.086 0 2.789 13.943 25.091 22.918 36.66C40.666 906.63 66.915 931.211 88.635 946c1.211.825 6.488 4.519 11.725 8.21 8.588 6.051 38.927 25.368 42.64 27.149 1.733.831.623.183 22.335 13.055 9.198 5.452 16.554 10.406 16.349 10.996-.419 1.22-.751 1.22-23.434.13-12.463-.6-16.25-.5-16.25.42 0 .67 2.805 4.14 6.234 7.71 6.363 6.62 16.094 13.62 23.266 16.73 2.2.96 4.9 2.14 6 2.64 6.884 3.1 58.627 17.96 62.549 17.96 1.556 0 3.712-1.19 5.44-2.99l2.863-2.99-2.426-5.26c-3.209-6.96-8.775-12.29-18.469-17.7-27.46-15.31-53.864-39.682-69.14-63.828-5.287-8.358-15.305-27.568-16.554-31.743-.327-1.094-1.505-4.384-2.619-7.311-4.03-10.594-9.651-35.997-10.575-47.789l-.557-7.11 5.244-4.92c8.667-8.132 16.174-9.227 24.571-3.585 2.232 1.499 12.021 10.376 21.754 19.726s18.238 17.132 18.9 17.293c1.542.375 2.699-1.208 4.965-6.793a952.89 952.89 0 0 1 3.079-7.5c4.259-10.198 10.506-27.864 11.013-31.139.537-3.474.116-4.512-4.199-10.361-12.658-17.155-18.954-28.768-24.381-44.966-6.681-19.942-9.713-49.937-7.432-73.534 1.869-19.338 3.483-25.203 11.552-42 8.572-17.841 16.892-27.095 30.422-33.837 13.229-6.591 32.771-6.133 46.5 1.091 14.624 7.694 31.868 25.724 56.787 59.374 14.334 19.355 33.524 49.995 59.734 95.372l17.327 30c4.128 7.15 10.661 18.4 14.517 25 3.855 6.6 7.512 12.9 8.126 14 3.607 6.461 5.882 9.542 6.814 9.232.582-.194 1.88-3.926 2.885-8.292 3.807-16.542 9.59-36.142 13.259-44.94.688-1.65 1.82-4.575 2.517-6.5.696-1.925 2.338-5.875 3.65-8.777 1.311-2.903 2.384-5.551 2.384-5.885 0-1.201 17.875-36.036 23.008-44.838 2.887-4.95 6.037-10.38 7-12.066 12.896-22.578 57.522-88.257 68.788-101.24 12.747-14.69 28.503-17.653 45.089-8.478 8.283 4.583 13.168 9.046 20.101 18.369 12.112 16.286 19.747 35.248 25.936 64.415 1.952 9.202 4.078 31.574 4.078 42.921 0 22.431-4.746 45.776-10.588 52.08-1.885 2.033-3.304 2.513-7.614 2.573-8.948.125-14.237 1.247-14.592 3.094-.177.917 1.301 3.924 3.282 6.683 4.309 5.998 9.647 18.134 15.459 35.149 4.973 14.56 7.686 20.284 9.357 19.744.658-.212 3.446-4.691 6.196-9.952 2.75-5.262 6.724-12.066 8.831-15.12 4.614-6.689 13.2-13.559 17.897-14.322 2.979-.483 3.788-.121 6.256 2.798 4.052 4.793 9.15 16.051 11.481 25.352 2.998 11.964 2.801 29.826-.473 42.982-1.366 5.49-3.188 11.565-4.049 13.5-7.829 17.6-18.802 33.285-33.443 47.801-8.311 8.242-14.372 12.88-30.729 23.518-16.244 10.569-21.499 15.579-23.131 22.059-.657 2.61-.931 5.17-.608 5.69.967 1.57 5.199 1.08 10.229-1.17 25.491-11.43 44.832-22.99 59.739-35.701 6.57-5.602 14.309-14.123 13.742-15.131-.14-.248-4.189-.332-8.998-.187-6.145.185-9.287-.139-10.57-1.091-1.693-1.256-1.326-1.825 5.036-7.812 7.723-7.268 25.737-23.869 28.907-26.64l8.482-7.42A6923.94 6923.94 0 0 1 727 916.908c11.317-9.836 13.453-11.702 20.5-17.908 3.3-2.906 7.362-6.458 9.027-7.892 23.926-20.612 38.437-34.573 50.521-48.608 18.949-22.009 43.513-63.5 37.594-63.5-.769 0-4.94 2.481-9.27 5.514-4.329 3.032-8.547 5.812-9.372 6.177-.825.365-1.725.966-2 1.336-1.895 2.548-38.688 22.751-49.5 27.18-10.442 4.278-25.5 6.508-25.5 3.778 0-.558 8.461-9.446 18.803-19.75 27.887-27.787 42.637-49.307 55.678-81.235 7.199-17.626 18.801-57.052 17.246-58.607-.326-.326-2.202-.061-4.17.588-4.76 1.571-41.26 20.122-64.557 32.811-11.098 6.044-13.473 7.086-14.309 6.275-1.137-1.103 2.651-7.601 17.82-30.567 18.56-28.101 22.474-34.561 28.175-46.5 6.758-14.153 9.484-22.181 14.26-42 3.995-16.576 4.005-75.901.018-111-1.976-17.403-4.077-33.449-4.974-38-.488-2.475-1.651-8.663-2.585-13.75-.934-5.087-2.021-9.25-2.415-9.25-.394 0-3.815 4.527-7.603 10.059-18.148 26.507-24.598 34.288-46.819 56.476-12.138 12.119-25.645 25.111-30.018 28.872-9.427 8.109-18.3 14.176-19.287 13.189-.389-.389.083-2.82 1.05-5.401 8.741-23.355 10.942-34.519 10.981-55.695.028-15.018-1.343-27.3-4.298-38.5-.507-1.925-1.807-7.325-2.888-12-2.232-9.65-6.199-24.852-8.613-33-.896-3.025-1.862-6.4-2.146-7.5-.284-1.1-.872-2.9-1.308-4-.435-1.1-1.547-4.7-2.47-8-.923-3.3-2.067-6.9-2.541-8-.474-1.1-2.288-6.725-4.03-12.5-1.742-5.775-3.526-11.4-3.964-12.5-.438-1.1-2.676-7.85-4.973-15-2.297-7.15-4.552-13.9-5.012-15-.46-1.1-2.754-7.175-5.099-13.5-2.344-6.325-6.629-16.225-9.521-22-5.513-11.011-15.187-26.085-17.162-26.744-1.156-.385-1.992 2.191-4.137 12.744l-3.256 16c-1.176 5.775-2.46 12.3-2.855 14.5-3.331 18.587-16.282 49.551-26.606 63.615-4.645 6.328-5.445 5.633-7.184-6.244a52604.73 52604.73 0 0 0-3.286-22.371c-1.133-7.7-2.471-16.925-2.974-20.5-.503-3.575-1.623-10.325-2.488-15-.865-4.675-1.982-10.75-2.482-13.5-.499-2.75-1.655-8.6-2.569-13-.913-4.4-2.015-9.8-2.448-12-1.962-9.969-8.446-36.42-12.992-53-6.319-23.044-18.767-59.629-24.577-72.229-.819-1.776-2.1-4.926-2.846-7-2.528-7.023-12.666-28.7-20.239-43.271-13.058-25.125-35.36-60-38.368-60-.38 0-.999 2.137-1.377 4.75ZM258.492 860.486c-4.658 2.047-6.025 4.213-9.795 15.514-4.253 12.747-6.094 20.522-5.331 22.512.667 1.738 5.498 1.961 10.624.491 1.912-.549 9.109-1.081 15.993-1.184 9.627-.144 13.641.208 17.386 1.526 9.584 3.37 21.232 12.122 68.113 51.177 27.942 23.278 46.122 37.897 49.191 39.558 4.625 2.502 12.771-2.598 13.918-8.715.669-3.565-.716-6.591-2.037-4.452-.951 1.538-6.148 1.348-9.422-.345-1.523-.787-7.913-6.969-14.2-13.737-58.341-62.8-95.118-97.652-107.721-102.081-6.043-2.124-22.128-2.283-26.719-.264Zm306.015 20.087c-5.649 2.945-15.31 10.887-45.523 37.422-43.768 38.438-56.221 48.521-65.451 52.989-3.142 1.521-4.533 2.81-4.533 4.201 0 3.157 3.243 7.838 5.891 8.502 2.965.745 5.218-.403 25.109-12.792 18.448-11.491 68.238-42.419 72.5-45.036 1.65-1.013 3.675-2.144 4.5-2.513.825-.369 2.78-1.559 4.344-2.644 2.543-1.763 4.042-1.92 14.119-1.475l11.275.497 9.958 5.312c6.195 3.304 10.59 5.068 11.631 4.669 1.46-.56 1.672-2.525 1.667-15.424-.008-22.26-1.085-24.546-13.349-28.329-3.93-1.212-8.045-2.57-9.145-3.018-2.634-1.073-15.897-3.936-18.197-3.928-.992.004-3.15.709-4.796 1.567Z" fill="currentColor"/></svg>
