<svg viewBox="0 0 24 24" fill="none" xmlns="http://www.w3.org/2000/svg">
<path d="M14.3878 16.7974C14.225 16.842 14.0745 16.9229 13.9474 17.0339C13.8203 17.145 13.72 17.2833 13.6539 17.4386C13.6539 17.4386 13.6017 17.7347 12.0253 17.7522H11.9774C10.4012 17.7289 10.349 17.4386 10.349 17.4386C10.283 17.2833 10.1827 17.145 10.0556 17.0339C9.92849 16.9229 9.77793 16.842 9.61518 16.7974C6.88462 16.3479 6.47954 15.4439 6.39864 14.7838C6.35102 14.4037 6.47266 13.8744 6.59315 13.4607C6.86425 12.5266 7.24122 11.2471 6.9047 10.4665C6.71938 10.0362 6.21446 9.41621 4.86295 8.91732L4.83972 8.90871C4.59472 8.82265 3.73493 8.47839 3.23317 8.24113C2.7193 8.01716 2.26341 7.67873 1.90031 7.25167C1.65478 6.96446 1.45188 6.64339 1.29785 6.29836C3.97935 8.09023 5.80192 7.68831 6.57651 8.07991C6.91479 8.25637 7.17868 8.54815 7.3204 8.9024C8.11076 7.68831 9.51735 6.912 11.7958 6.912H12.2032C14.4827 6.912 15.8893 7.68831 16.6785 8.9024C16.8203 8.54802 17.0845 8.2562 17.423 8.07991C18.1976 7.68831 20.0216 8.09023 22.7017 6.29692C22.4488 6.85804 22.0715 7.35419 21.5983 7.74769C21.1878 8.09741 20.4671 8.37884 19.7049 8.67777C18.5301 9.13305 17.3105 9.61932 17.0942 10.4389C16.8748 11.2787 17.1748 12.4018 17.4155 13.4016C17.5253 13.8185 17.5906 14.2459 17.6106 14.6765C17.5779 15.3467 17.2692 16.3232 14.3878 16.7974Z" fill="currentColor"/>
<path d="M23 6.29692C23 6.21847 22.969 6.14321 22.9136 6.08757C22.8583 6.03194 22.7832 6.00045 22.7048 6H22.6919C22.6354 6.00184 22.5807 6.01998 22.5344 6.05221C20.7422 7.24995 19.3319 7.43729 18.399 7.56122C17.9377 7.62261 17.5736 7.67081 17.2887 7.81482L17.2856 7.81655C17.0355 7.9471 16.8177 8.13186 16.6481 8.35732C15.7014 7.20089 14.2096 6.61508 12.2014 6.61508H11.794C9.78586 6.61508 8.29406 7.20089 7.34735 8.35732C7.17777 8.13186 6.95999 7.9471 6.70989 7.81655H6.70674C6.42215 7.6731 6.05809 7.62405 5.59679 7.56265C4.66556 7.43729 3.25553 7.24995 1.46193 6.05135C1.40838 6.01556 1.34465 5.99814 1.28033 6.00174C1.21602 6.00534 1.15462 6.02976 1.1054 6.0713C1.05618 6.11285 1.0218 6.16928 1.00746 6.23207C0.993112 6.29487 0.999575 6.36062 1.02587 6.41942C1.07435 6.52815 1.26312 7.02016 1.31562 7.15729C1.54513 7.75515 2.39861 9.00797 2.56902 10.5018C2.58709 10.6452 2.61262 10.8128 2.64734 10.9812L3.51057 11.1094L2.82807 11.6258C3.02204 12.2286 3.37108 12.7697 3.8402 13.195L4.84429 12.6867L4.47134 13.5952C4.91888 13.7923 5.5265 13.8744 6.20039 13.7886C6.10227 14.2129 6.07072 14.5534 6.10428 14.8214C6.19035 15.5151 6.55785 15.8828 6.82752 16.1012C7.39038 16.5547 8.28115 16.8775 9.55061 17.088C9.66475 17.1211 9.77029 17.1786 9.85988 17.2567C9.94947 17.3347 10.0209 17.4314 10.0693 17.5399C10.1789 17.8695 10.7865 18.0319 11.9733 18.0494H12.029C12.7161 18.0416 13.2219 17.9808 13.5323 17.8684C13.7936 17.7737 13.896 17.6469 13.9339 17.5428C13.982 17.4336 14.0534 17.3363 14.1432 17.2577C14.2329 17.1791 14.3389 17.1212 14.4535 17.088C15.7886 16.8669 16.7081 16.522 17.2649 16.034C17.8068 15.5587 17.8918 15.0397 17.9084 14.6908C17.9084 14.6817 17.9084 14.6721 17.9084 14.6622C17.8947 14.3679 17.8609 14.075 17.8071 13.7854C18.0352 13.8164 18.2656 13.8275 18.4956 13.8187L18.3766 12.9294L18.9845 13.7172L19.0488 13.1982L19.4343 13.6133C19.9434 13.395 20.3756 13.0295 20.6757 12.5639L19.6739 11.7119L20.9778 12.0131C21.1658 11.6389 21.2945 11.2377 21.359 10.8239L20.7781 10.5356C20.7781 10.5356 21.4307 10.4404 21.4307 10.4375L20.5859 10.0281L21.4824 10.0367C21.7541 8.73916 22.4675 7.68429 22.6767 7.15356C22.7277 7.02331 22.9191 6.53905 22.9696 6.42774C22.9897 6.38707 23.0001 6.3423 23 6.29692V6.29692ZM14.3878 16.7969C14.225 16.8415 14.0744 16.9223 13.9474 17.0334C13.8203 17.1444 13.72 17.2827 13.6539 17.438C13.6539 17.438 13.6017 17.7341 12.0253 17.7516H11.9774C10.4012 17.7284 10.349 17.438 10.349 17.438C10.283 17.2827 10.1826 17.1444 10.0556 17.0334C9.92848 16.9223 9.77792 16.8415 9.61516 16.7969C6.88461 16.3479 6.47953 15.4439 6.39862 14.7838C6.351 14.4037 6.47264 13.8744 6.59313 13.4607C6.86424 12.5266 7.2412 11.2471 6.90469 10.4665C6.71936 10.0362 6.21445 9.41621 4.86294 8.91732L4.8397 8.90871C4.5947 8.82265 3.73491 8.47839 3.23315 8.24113C2.71929 8.01716 2.2634 7.67873 1.90029 7.25167C1.65477 6.96446 1.45187 6.64339 1.29784 6.29836C3.97934 8.09023 5.80191 7.68831 6.57649 8.07991C6.91477 8.25637 7.17867 8.54815 7.32038 8.9024C8.11075 7.68831 9.51734 6.912 11.7958 6.912H12.2031C14.4827 6.912 15.8893 7.68831 16.6785 8.9024C16.8203 8.54802 17.0844 8.2562 17.423 8.07991C18.1976 7.68831 20.0216 8.09023 22.7016 6.29692C22.4488 6.85804 22.0715 7.35419 21.5983 7.74769C21.1878 8.09741 20.4671 8.37884 19.7049 8.67777C18.5301 9.13305 17.3105 9.61932 17.0942 10.4389C16.8747 11.2787 17.1748 12.4018 17.4155 13.4016C17.5252 13.8185 17.5906 14.2459 17.6106 14.6765C17.5779 15.3467 17.2692 16.3232 14.3878 16.7974V16.7969Z" fill="currentColor"/>
</svg>
