<svg viewBox="0 0 24 24" fill="none" xmlns="http://www.w3.org/2000/svg">
<path fill-rule="evenodd" clip-rule="evenodd" d="M2.43091 8.85133C2.58098 7.61212 3.02989 6.40786 3.73754 5.37813C5.15551 3.31526 7.59913 2.01319 10.1425 2.00136C11.3808 1.99955 12.6192 1.99955 13.8576 2.00136C15.6655 2.00978 17.45 2.65986 18.8269 3.80498C20.3367 5.0606 21.3295 6.88777 21.5689 8.85133C21.5875 8.85059 21.6062 8.85016 21.625 8.85016C22.3839 8.85016 23 9.46401 23 10.22V12.9595C23 13.7155 22.3839 14.3293 21.625 14.3293C21.6064 14.3293 21.5879 14.3289 21.5694 14.3282C21.4218 15.5513 20.9835 16.7385 20.2894 17.7618C18.8736 19.8495 16.4011 21.1663 13.8576 21.1781C12.6192 21.1799 11.3808 21.1799 10.1425 21.1781C8.38635 21.17 6.64514 20.5553 5.2845 19.4655C3.71454 18.208 2.6811 16.3108 2.43284 14.328C2.4137 14.3289 2.39434 14.3293 2.37498 14.3293C1.61609 14.3293 1 13.7155 1 12.9595V10.22C1 9.46401 1.61609 8.85016 2.37498 8.85016C2.3937 8.85016 2.41241 8.85059 2.43091 8.85133ZM10.1713 4.823C8.54684 4.82545 6.93949 5.66762 6.01933 7.01151C5.45328 7.83832 5.14442 8.83118 5.13972 9.83793C5.1378 11.0732 5.13407 12.3083 5.13983 13.5436C5.15231 15.1595 5.98689 16.7327 7.30277 17.6457C8.13072 18.2199 9.13253 18.5349 10.1389 18.5427C11.3792 18.5485 12.6196 18.5485 13.86 18.5427C15.9352 18.5266 17.8998 17.1391 18.5849 15.1504C18.7628 14.6341 18.8548 14.0883 18.8591 13.5436C18.8646 12.3031 18.8646 11.0627 18.8591 9.82224C18.8466 8.23416 18.0338 6.66636 16.7339 5.74671C15.8993 5.15609 14.8817 4.831 13.86 4.8231C12.6304 4.81734 11.4008 4.823 10.1713 4.823ZM10.4017 10.3206C10.4017 9.56818 9.81195 8.95726 9.08552 8.95726C8.35908 8.95726 7.76923 9.56818 7.76923 10.3206V13.047C7.76923 13.7993 8.35908 14.4103 9.08552 14.4103C9.81195 14.4103 10.4017 13.7993 10.4017 13.047V10.3206ZM16.0427 10.3206C16.0427 9.56818 15.453 8.95726 14.7265 8.95726C14.0001 8.95726 13.4103 9.56818 13.4103 10.3206V13.047C13.4103 13.7993 14.0001 14.4103 14.7265 14.4103C15.453 14.4103 16.0427 13.7993 16.0427 13.047V10.3206Z" fill="currentColor"/>
</svg>
