<svg xmlns="http://www.w3.org/2000/svg" width="800" height="800"><g stroke="none" fill="#fff"><circle r="1.25" opacity=".35"/><circle r="1.25" cx="50" opacity=".35"/><circle r="1.25" cx="100" opacity=".35"/><circle r="1.25" cx="150" opacity=".35"/><circle r="1.25" cx="200" opacity=".35"/><circle r="1.25" cx="250" opacity=".35"/><circle r="1.25" cx="300" opacity=".35"/><circle r="1.25" cx="350" opacity=".35"/><circle r="1.25" cx="400" opacity=".35"/><circle r="1.25" cx="450" opacity=".35"/><circle r="1.25" cx="500" opacity=".35"/><circle r="1.25" cx="550" opacity=".35"/><circle r="1.25" cx="600" opacity=".35"/><circle r="1.25" cx="650" opacity=".35"/><circle r="1.25" cx="700" opacity=".35"/><circle r="1.25" cx="750" opacity=".35"/><circle r="1.25" cx="800" opacity=".35"/><circle r="1.25" cy="50" opacity=".35"/><circle r="1.25" cx="50" cy="50" opacity=".35"/><circle r="1.25" cx="100" cy="50" opacity=".35"/><circle r="1.25" cx="150" cy="50"/><circle r="1.25" cx="200" cy="50" opacity=".35"/><circle r="1.25" cx="250" cy="50" opacity=".35"/><circle r="1.25" cx="300" cy="50" opacity=".35"/><circle r="1.25" cx="350" cy="50" opacity=".35"/><circle r="1.25" cx="400" cy="50"/><circle r="1.25" cx="450" cy="50" opacity=".35"/><circle r="1.25" cx="500" cy="50" opacity=".35"/><circle r="1.25" cx="550" cy="50" opacity=".35"/><circle r="1.25" cx="600" cy="50" opacity=".35"/><circle r="1.25" cx="650" cy="50" opacity=".35"/><circle r="1.25" cx="700" cy="50"/><circle r="1.25" cx="750" cy="50" opacity=".35"/><circle r="1.25" cx="800" cy="50" opacity=".35"/><circle r="1.25" cy="100" opacity=".35"/><circle r="1.25" cx="50" cy="100" opacity=".35"/><circle r="1.25" cx="100" cy="100" opacity=".35"/><circle r="1.25" cx="150" cy="100" opacity=".35"/><circle r="1.25" cx="200" cy="100"/><circle r="1.25" cx="250" cy="100"/><circle r="1.25" cx="300" cy="100" opacity=".35"/><circle r="1.25" cx="350" cy="100" opacity=".35"/><circle r="1.25" cx="400" cy="100" opacity=".35"/><circle r="1.25" cx="450" cy="100"/><circle r="1.25" cx="500" cy="100" opacity=".35"/><circle r="1.25" cx="550" cy="100" opacity=".35"/><circle r="1.25" cx="600" cy="100"/><circle r="1.25" cx="650" cy="100" opacity=".35"/><circle r="1.25" cx="700" cy="100" opacity=".35"/><circle r="1.25" cx="750" cy="100"/><circle r="1.25" cx="800" cy="100" opacity=".35"/><circle r="1.25" cy="150" opacity=".35"/><circle r="1.25" cx="50" cy="150" opacity=".35"/><circle r="1.25" cx="100" cy="150" opacity=".35"/><circle r="1.25" cx="150" cy="150" opacity=".35"/><circle r="1.25" cx="200" cy="150"/><circle r="1.25" cx="250" cy="150" opacity=".35"/><circle r="1.25" cx="300" cy="150"/><circle r="1.25" cx="350" cy="150" opacity=".35"/><circle r="1.25" cx="400" cy="150" opacity=".35"/><circle r="1.25" cx="450" cy="150" opacity=".35"/><circle r="1.25" cx="500" cy="150"/><circle r="1.25" cx="550" cy="150" opacity=".35"/><circle r="1.25" cx="600" cy="150" opacity=".35"/><circle r="1.25" cx="650" cy="150"/><circle r="1.25" cx="700" cy="150" opacity=".35"/><circle r="1.25" cx="750" cy="150" opacity=".35"/><circle r="1.25" cx="800" cy="150" opacity=".35"/><circle r="1.25" cy="200" opacity=".35"/><circle r="1.25" cx="50" cy="200"/><circle r="1.25" cx="100" cy="200"/><circle r="1.25" cx="150" cy="200"/><circle r="1.25" cx="200" cy="200" opacity=".35"/><circle r="1.25" cx="250" cy="200" opacity=".35"/><circle r="1.25" cx="300" cy="200" opacity=".35"/><circle r="1.25" cx="350" cy="200"/><circle r="1.25" cx="400" cy="200" opacity=".35"/><circle r="1.25" cx="450" cy="200" opacity=".35"/><circle r="1.25" cx="500" cy="200" opacity=".35"/><circle r="1.25" cx="550" cy="200"/><circle r="1.25" cx="600" cy="200" opacity=".35"/><circle r="1.25" cx="650" cy="200" opacity=".35"/><circle r="1.25" cx="700" cy="200" opacity=".35"/><circle r="1.25" cx="750" cy="200" opacity=".35"/><circle r="1.25" cx="800" cy="200" opacity=".35"/><circle r="1.25" cy="250" opacity=".35"/><circle r="1.25" cx="50" cy="250" opacity=".35"/><circle r="1.25" cx="100" cy="250" opacity=".35"/><circle r="1.25" cx="150" cy="250"/><circle r="1.25" cx="200" cy="250" opacity=".35"/><circle r="1.25" cx="250" cy="250"/><circle r="1.25" cx="300" cy="250" opacity=".35"/><circle r="1.25" cx="350" cy="250"/><circle r="1.25" cx="400" cy="250" opacity=".35"/><circle r="1.25" cx="450" cy="250" opacity=".35"/><circle r="1.25" cx="500" cy="250" opacity=".35"/><circle r="1.25" cx="550" cy="250" opacity=".35"/><circle r="1.25" cx="600" cy="250" opacity=".35"/><circle r="1.25" cx="650" cy="250" opacity=".35"/><circle r="1.25" cx="700" cy="250" opacity=".35"/><circle r="1.25" cx="750" cy="250" opacity=".35"/><circle r="1.25" cx="800" cy="250" opacity=".35"/><circle r="1.25" cy="300" opacity=".35"/><circle r="1.25" cx="50" cy="300" opacity=".35"/><circle r="1.25" cx="100" cy="300"/><circle r="1.25" cx="150" cy="300"/><circle r="1.25" cx="200" cy="300"/><circle r="1.25" cx="250" cy="300"/><circle r="1.25" cx="300" cy="300"/><circle r="1.25" cx="350" cy="300" opacity=".35"/><circle r="1.25" cx="400" cy="300"/><circle r="1.25" cx="450" cy="300"/><circle r="1.25" cx="500" cy="300" opacity=".35"/><circle r="1.25" cx="550" cy="300" opacity=".35"/><circle r="1.25" cx="600" cy="300" opacity=".35"/><circle r="1.25" cx="650" cy="300"/><circle r="1.25" cx="700" cy="300" opacity=".35"/><circle r="1.25" cx="750" cy="300"/><circle r="1.25" cx="800" cy="300" opacity=".35"/><circle r="1.25" cy="350" opacity=".35"/><circle r="1.25" cx="50" cy="350" opacity=".35"/><circle r="1.25" cx="100" cy="350" opacity=".35"/><circle r="1.25" cx="150" cy="350"/><circle r="1.25" cx="200" cy="350" opacity=".35"/><circle r="1.25" cx="250" cy="350" opacity=".35"/><circle r="1.25" cx="300" cy="350" opacity=".35"/><circle r="1.25" cx="350" cy="350" opacity=".35"/><circle r="1.25" cx="400" cy="350"/><circle r="1.25" cx="450" cy="350"/><circle r="1.25" cx="500" cy="350" opacity=".35"/><circle r="1.25" cx="550" cy="350" opacity=".35"/><circle r="1.25" cx="600" cy="350" opacity=".35"/><circle r="1.25" cx="650" cy="350"/><circle r="1.25" cx="700" cy="350"/><circle r="1.25" cx="750" cy="350"/><circle r="1.25" cx="800" cy="350" opacity=".35"/><circle r="1.25" cy="400" opacity=".35"/><circle r="1.25" cx="50" cy="400" opacity=".35"/><circle r="1.25" cx="100" cy="400"/><circle r="1.25" cx="150" cy="400" opacity=".35"/><circle r="1.25" cx="200" cy="400" opacity=".35"/><circle r="1.25" cx="250" cy="400" opacity=".35"/><circle r="1.25" cx="300" cy="400"/><circle r="1.25" cx="350" cy="400" opacity=".35"/><circle r="1.25" cx="400" cy="400" opacity=".35"/><circle r="1.25" cx="450" cy="400" opacity=".35"/><circle r="1.25" cx="500" cy="400" opacity=".35"/><circle r="1.25" cx="550" cy="400" opacity=".35"/><circle r="1.25" cx="600" cy="400" opacity=".35"/><circle r="1.25" cx="650" cy="400"/><circle r="1.25" cx="700" cy="400" opacity=".35"/><circle r="1.25" cx="750" cy="400"/><circle r="1.25" cx="800" cy="400" opacity=".35"/><circle r="1.25" cy="450" opacity=".35"/><circle r="1.25" cx="50" cy="450" opacity=".35"/><circle r="1.25" cx="100" cy="450" opacity=".35"/><circle r="1.25" cx="150" cy="450" opacity=".35"/><circle r="1.25" cx="200" cy="450"/><circle r="1.25" cx="250" cy="450" opacity=".35"/><circle r="1.25" cx="300" cy="450"/><circle r="1.25" cx="350" cy="450" opacity=".35"/><circle r="1.25" cx="400" cy="450" opacity=".35"/><circle r="1.25" cx="450" cy="450" opacity=".35"/><circle r="1.25" cx="500" cy="450" opacity=".35"/><circle r="1.25" cx="550" cy="450" opacity=".35"/><circle r="1.25" cx="600" cy="450" opacity=".35"/><circle r="1.25" cx="650" cy="450"/><circle r="1.25" cx="700" cy="450" opacity=".35"/><circle r="1.25" cx="750" cy="450" opacity=".35"/><circle r="1.25" cx="800" cy="450" opacity=".35"/><circle r="1.25" cy="500" opacity=".35"/><circle r="1.25" cx="50" cy="500" opacity=".35"/><circle r="1.25" cx="100" cy="500" opacity=".35"/><circle r="1.25" cx="150" cy="500" opacity=".35"/><circle r="1.25" cx="200" cy="500" opacity=".35"/><circle r="1.25" cx="250" cy="500" opacity=".35"/><circle r="1.25" cx="300" cy="500"/><circle r="1.25" cx="350" cy="500"/><circle r="1.25" cx="400" cy="500" opacity=".35"/><circle r="1.25" cx="450" cy="500" opacity=".35"/><circle r="1.25" cx="500" cy="500" opacity=".35"/><circle r="1.25" cx="550" cy="500" opacity=".35"/><circle r="1.25" cx="600" cy="500" opacity=".35"/><circle r="1.25" cx="650" cy="500" opacity=".35"/><circle r="1.25" cx="700" cy="500"/><circle r="1.25" cx="750" cy="500" opacity=".35"/><circle r="1.25" cx="800" cy="500" opacity=".35"/><circle r="1.25" cy="550" opacity=".35"/><circle r="1.25" cx="50" cy="550" opacity=".35"/><circle r="1.25" cx="100" cy="550" opacity=".35"/><circle r="1.25" cx="150" cy="550" opacity=".35"/><circle r="1.25" cx="200" cy="550" opacity=".35"/><circle r="1.25" cx="250" cy="550" opacity=".35"/><circle r="1.25" cx="300" cy="550" opacity=".35"/><circle r="1.25" cx="350" cy="550" opacity=".35"/><circle r="1.25" cx="400" cy="550" opacity=".35"/><circle r="1.25" cx="450" cy="550" opacity=".35"/><circle r="1.25" cx="500" cy="550"/><circle r="1.25" cx="550" cy="550" opacity=".35"/><circle r="1.25" cx="600" cy="550"/><circle r="1.25" cx="650" cy="550"/><circle r="1.25" cx="700" cy="550" opacity=".35"/><circle r="1.25" cx="750" cy="550" opacity=".35"/><circle r="1.25" cx="800" cy="550" opacity=".35"/><circle r="1.25" cy="600" opacity=".35"/><circle r="1.25" cx="50" cy="600" opacity=".35"/><circle r="1.25" cx="100" cy="600" opacity=".35"/><circle r="1.25" cx="150" cy="600" opacity=".35"/><circle r="1.25" cx="200" cy="600" opacity=".35"/><circle r="1.25" cx="250" cy="600"/><circle r="1.25" cx="300" cy="600" opacity=".35"/><circle r="1.25" cx="350" cy="600" opacity=".35"/><circle r="1.25" cx="400" cy="600"/><circle r="1.25" cx="450" cy="600"/><circle r="1.25" cx="500" cy="600" opacity=".35"/><circle r="1.25" cx="550" cy="600" opacity=".35"/><circle r="1.25" cx="600" cy="600" opacity=".35"/><circle r="1.25" cx="650" cy="600" opacity=".35"/><circle r="1.25" cx="700" cy="600" opacity=".35"/><circle r="1.25" cx="750" cy="600" opacity=".35"/><circle r="1.25" cx="800" cy="600" opacity=".35"/><circle r="1.25" cy="650" opacity=".35"/><circle r="1.25" cx="50" cy="650"/><circle r="1.25" cx="100" cy="650"/><circle r="1.25" cx="150" cy="650" opacity=".35"/><circle r="1.25" cx="200" cy="650" opacity=".35"/><circle r="1.25" cx="250" cy="650" opacity=".35"/><circle r="1.25" cx="300" cy="650" opacity=".35"/><circle r="1.25" cx="350" cy="650" opacity=".35"/><circle r="1.25" cx="400" cy="650" opacity=".35"/><circle r="1.25" cx="450" cy="650"/><circle r="1.25" cx="500" cy="650" opacity=".35"/><circle r="1.25" cx="550" cy="650" opacity=".35"/><circle r="1.25" cx="600" cy="650"/><circle r="1.25" cx="650" cy="650"/><circle r="1.25" cx="700" cy="650" opacity=".35"/><circle r="1.25" cx="750" cy="650" opacity=".35"/><circle r="1.25" cx="800" cy="650" opacity=".35"/><circle r="1.25" cy="700" opacity=".35"/><circle r="1.25" cx="50" cy="700" opacity=".35"/><circle r="1.25" cx="100" cy="700" opacity=".35"/><circle r="1.25" cx="150" cy="700" opacity=".35"/><circle r="1.25" cx="200" cy="700"/><circle r="1.25" cx="250" cy="700"/><circle r="1.25" cx="300" cy="700" opacity=".35"/><circle r="1.25" cx="350" cy="700" opacity=".35"/><circle r="1.25" cx="400" cy="700" opacity=".35"/><circle r="1.25" cx="450" cy="700" opacity=".35"/><circle r="1.25" cx="500" cy="700" opacity=".35"/><circle r="1.25" cx="550" cy="700" opacity=".35"/><circle r="1.25" cx="600" cy="700" opacity=".35"/><circle r="1.25" cx="650" cy="700" opacity=".35"/><circle r="1.25" cx="700" cy="700" opacity=".35"/><circle r="1.25" cx="750" cy="700" opacity=".35"/><circle r="1.25" cx="800" cy="700" opacity=".35"/><circle r="1.25" cy="750" opacity=".35"/><circle r="1.25" cx="50" cy="750" opacity=".35"/><circle r="1.25" cx="100" cy="750" opacity=".35"/><circle r="1.25" cx="150" cy="750"/><circle r="1.25" cx="200" cy="750" opacity=".35"/><circle r="1.25" cx="250" cy="750" opacity=".35"/><circle r="1.25" cx="300" cy="750" opacity=".35"/><circle r="1.25" cx="350" cy="750" opacity=".35"/><circle r="1.25" cx="400" cy="750" opacity=".35"/><circle r="1.25" cx="450" cy="750" opacity=".35"/><circle r="1.25" cx="500" cy="750" opacity=".35"/><circle r="1.25" cx="550" cy="750" opacity=".35"/><circle r="1.25" cx="600" cy="750" opacity=".35"/><circle r="1.25" cx="650" cy="750" opacity=".35"/><circle r="1.25" cx="700" cy="750" opacity=".35"/><circle r="1.25" cx="750" cy="750" opacity=".35"/><circle r="1.25" cx="800" cy="750" opacity=".35"/><circle r="1.25" cy="800" opacity=".35"/><circle r="1.25" cx="50" cy="800" opacity=".35"/><circle r="1.25" cx="100" cy="800" opacity=".35"/><circle r="1.25" cx="150" cy="800" opacity=".35"/><circle r="1.25" cx="200" cy="800" opacity=".35"/><circle r="1.25" cx="250" cy="800" opacity=".35"/><circle r="1.25" cx="300" cy="800" opacity=".35"/><circle r="1.25" cx="350" cy="800" opacity=".35"/><circle r="1.25" cx="400" cy="800" opacity=".35"/><circle r="1.25" cx="450" cy="800" opacity=".35"/><circle r="1.25" cx="500" cy="800" opacity=".35"/><circle r="1.25" cx="550" cy="800" opacity=".35"/><circle r="1.25" cx="600" cy="800" opacity=".35"/><circle r="1.25" cx="650" cy="800" opacity=".35"/><circle r="1.25" cx="700" cy="800" opacity=".35"/><circle r="1.25" cx="750" cy="800" opacity=".35"/><circle r="1.25" cx="800" cy="800" opacity=".35"/></g></svg>
